<mxfile host="app.diagrams.net" modified="2023-10-28T00:25:56.472Z" agent="Mozilla/5.0 (Windows NT 10.0; Win64; x64) AppleWebKit/537.36 (KHTML, like Gecko) Chrome/118.0.0.0 Safari/537.36" etag="T6NQwpZShXpP8N9h-of6" version="22.0.8" type="device">
  <diagram name="Page-1" id="orycICgGNQksDVD1-JhS">
    <mxGraphModel dx="1050" dy="534" grid="1" gridSize="10" guides="1" tooltips="1" connect="1" arrows="1" fold="1" page="1" pageScale="1" pageWidth="827" pageHeight="1169" math="0" shadow="0">
      <root>
        <mxCell id="0" />
        <mxCell id="1" parent="0" />
        <mxCell id="ZCmJ8IIu3jdQJyB_FGrE-3" value="" style="edgeStyle=orthogonalEdgeStyle;rounded=0;orthogonalLoop=1;jettySize=auto;html=1;" edge="1" parent="1" source="ZCmJ8IIu3jdQJyB_FGrE-1" target="ZCmJ8IIu3jdQJyB_FGrE-2">
          <mxGeometry relative="1" as="geometry" />
        </mxCell>
        <mxCell id="ZCmJ8IIu3jdQJyB_FGrE-5" value="" style="edgeStyle=orthogonalEdgeStyle;rounded=0;orthogonalLoop=1;jettySize=auto;html=1;" edge="1" parent="1" source="ZCmJ8IIu3jdQJyB_FGrE-1" target="ZCmJ8IIu3jdQJyB_FGrE-4">
          <mxGeometry relative="1" as="geometry" />
        </mxCell>
        <mxCell id="ZCmJ8IIu3jdQJyB_FGrE-7" value="" style="edgeStyle=orthogonalEdgeStyle;rounded=0;orthogonalLoop=1;jettySize=auto;html=1;" edge="1" parent="1" source="ZCmJ8IIu3jdQJyB_FGrE-1" target="ZCmJ8IIu3jdQJyB_FGrE-6">
          <mxGeometry relative="1" as="geometry" />
        </mxCell>
        <mxCell id="ZCmJ8IIu3jdQJyB_FGrE-1" value="Home" style="rounded=0;whiteSpace=wrap;html=1;" vertex="1" parent="1">
          <mxGeometry x="354" y="40" width="120" height="60" as="geometry" />
        </mxCell>
        <mxCell id="ZCmJ8IIu3jdQJyB_FGrE-2" value="About" style="rounded=0;whiteSpace=wrap;html=1;" vertex="1" parent="1">
          <mxGeometry x="40" y="180" width="120" height="60" as="geometry" />
        </mxCell>
        <mxCell id="ZCmJ8IIu3jdQJyB_FGrE-4" value="Contact" style="rounded=0;whiteSpace=wrap;html=1;" vertex="1" parent="1">
          <mxGeometry x="354" y="180" width="120" height="60" as="geometry" />
        </mxCell>
        <mxCell id="ZCmJ8IIu3jdQJyB_FGrE-10" value="" style="edgeStyle=orthogonalEdgeStyle;rounded=0;orthogonalLoop=1;jettySize=auto;html=1;exitX=0;exitY=0.5;exitDx=0;exitDy=0;" edge="1" parent="1" source="ZCmJ8IIu3jdQJyB_FGrE-6" target="ZCmJ8IIu3jdQJyB_FGrE-9">
          <mxGeometry relative="1" as="geometry" />
        </mxCell>
        <mxCell id="ZCmJ8IIu3jdQJyB_FGrE-12" value="" style="edgeStyle=orthogonalEdgeStyle;rounded=0;orthogonalLoop=1;jettySize=auto;html=1;" edge="1" parent="1" source="ZCmJ8IIu3jdQJyB_FGrE-6" target="ZCmJ8IIu3jdQJyB_FGrE-11">
          <mxGeometry relative="1" as="geometry" />
        </mxCell>
        <mxCell id="ZCmJ8IIu3jdQJyB_FGrE-14" value="" style="edgeStyle=orthogonalEdgeStyle;rounded=0;orthogonalLoop=1;jettySize=auto;html=1;" edge="1" parent="1" source="ZCmJ8IIu3jdQJyB_FGrE-6" target="ZCmJ8IIu3jdQJyB_FGrE-13">
          <mxGeometry relative="1" as="geometry">
            <Array as="points">
              <mxPoint x="767" y="190" />
            </Array>
          </mxGeometry>
        </mxCell>
        <mxCell id="ZCmJ8IIu3jdQJyB_FGrE-6" value="Services" style="rounded=0;whiteSpace=wrap;html=1;" vertex="1" parent="1">
          <mxGeometry x="580" y="160" width="120" height="60" as="geometry" />
        </mxCell>
        <mxCell id="ZCmJ8IIu3jdQJyB_FGrE-9" value="Web development" style="rounded=0;whiteSpace=wrap;html=1;" vertex="1" parent="1">
          <mxGeometry x="450" y="320" width="120" height="60" as="geometry" />
        </mxCell>
        <mxCell id="ZCmJ8IIu3jdQJyB_FGrE-11" value="Web design" style="rounded=0;whiteSpace=wrap;html=1;" vertex="1" parent="1">
          <mxGeometry x="580" y="320" width="120" height="60" as="geometry" />
        </mxCell>
        <mxCell id="ZCmJ8IIu3jdQJyB_FGrE-13" value="Cyber security" style="rounded=0;whiteSpace=wrap;html=1;" vertex="1" parent="1">
          <mxGeometry x="707" y="320" width="120" height="60" as="geometry" />
        </mxCell>
      </root>
    </mxGraphModel>
  </diagram>
</mxfile>
